<svg width="200" height="46" viewBox="0 0 1388 320" fill="none" xmlns="http://www.w3.org/2000/svg"><g clip-path="url(#clip0_2618_98)"><path d="M406.665 250.046V96.1855H446.378V250.046H406.665Z" fill="#645FAD" stroke="#645FAD" stroke-width="3.41593" stroke-miterlimit="10" /><path d="M428.505 27.0098H407V71.0005H450V49.0005C450 36.851 440.371 27.0005 428.495 27.0005L428.505 27.0098Z" fill="#645FAD" stroke="#645FAD" stroke-width="3.41593" stroke-miterlimit="10" /><path d="M469.334 250.046V96.1856H504.389L507.494 122.247C512.248 113.146 519.127 105.908 528.121 100.533C537.115 95.1584 547.709 92.4711 559.915 92.4711C578.942 92.4711 593.728 98.4669 604.275 110.458C614.821 122.45 620.1 140.031 620.1 163.19V250.046H580.399V166.917C580.399 153.683 577.712 143.555 572.337 136.52C566.962 129.497 558.578 125.973 547.207 125.973C535.837 125.973 526.891 129.903 519.76 137.762C512.63 145.621 509.059 156.585 509.059 170.643V250.058H469.334V250.046Z" fill="#645FAD" stroke="#645FAD" stroke-width="3.41593" stroke-miterlimit="10" /><path d="M702.906 253.772C689.255 253.772 677.263 251.551 666.92 247.107C656.576 242.664 648.311 236.513 642.101 228.654C635.902 220.795 632.175 211.694 630.933 201.351H670.945C672.187 207.347 675.543 212.47 681.025 216.71C686.508 220.951 693.59 223.065 702.273 223.065C710.956 223.065 717.323 221.309 721.348 217.785C725.385 214.274 727.391 210.237 727.391 205.686C727.391 199.069 724.489 194.579 718.708 192.19C712.915 189.813 704.853 187.484 694.51 185.215C687.893 183.769 681.169 182.014 674.349 179.936C667.529 177.869 661.27 175.23 655.585 172.029C649.9 168.828 645.301 164.695 641.778 159.619C638.255 154.555 636.499 148.296 636.499 140.855C636.499 127.204 641.933 115.726 652.79 106.421C663.647 97.1172 678.899 92.4591 698.547 92.4591C716.737 92.4591 731.273 96.6992 742.13 105.179C752.987 113.659 759.448 125.34 761.515 140.234H723.975C721.694 128.864 713.118 123.179 698.224 123.179C690.783 123.179 685.038 124.624 681.013 127.526C676.976 130.428 674.97 134.035 674.97 138.383C674.97 142.731 677.968 146.553 683.964 149.24C689.959 151.927 697.926 154.412 707.851 156.681C718.601 159.165 728.478 161.9 737.472 164.898C746.465 167.896 753.656 172.339 759.03 178.24C764.405 184.128 767.092 192.56 767.092 203.525C767.295 213.044 764.811 221.619 759.651 229.275C754.48 236.931 747.039 242.927 737.316 247.263C727.594 251.61 716.116 253.772 702.882 253.772H702.906Z" fill="#645FAD" stroke="#645FAD" stroke-width="3.41593" stroke-miterlimit="10" /><path d="M783.551 318.293V96.1856H818.916L823.264 118.21C828.233 111.39 834.79 105.394 842.959 100.223C851.129 95.0509 861.723 92.4711 874.754 92.4711C889.23 92.4711 902.153 95.9945 913.523 103.017C924.894 110.052 933.887 119.667 940.516 131.862C947.133 144.068 950.441 157.923 950.441 173.426C950.441 188.929 947.133 202.736 940.516 214.835C933.899 226.934 924.906 236.442 913.523 243.369C902.153 250.296 889.218 253.76 874.754 253.76C863.168 253.76 853.04 251.586 844.357 247.251C835.674 242.903 828.639 236.812 823.264 228.953V318.293H783.563H783.551ZM866.369 219.028C878.982 219.028 889.421 214.788 897.698 206.307C905.963 197.827 910.107 186.875 910.107 173.426C910.107 159.977 905.963 148.917 897.698 140.234C889.421 131.551 878.982 127.204 866.369 127.204C853.756 127.204 843.055 131.491 834.885 140.079C826.716 148.667 822.631 159.679 822.631 173.116C822.631 186.552 826.716 197.577 834.885 206.152C843.055 214.74 853.542 219.028 866.369 219.028Z" fill="#645FAD" stroke="#645FAD" stroke-width="3.41593" stroke-miterlimit="10" /><path d="M1020.23 253.772C1007 253.772 996.138 251.646 987.658 247.418C979.178 243.178 972.872 237.54 968.739 230.518C964.595 223.495 962.541 215.731 962.541 207.251C962.541 192.978 968.118 181.405 979.286 172.506C990.453 163.62 1007.2 159.165 1029.53 159.165H1068.61V155.439C1068.61 144.892 1065.62 137.141 1059.62 132.172C1053.62 127.204 1046.17 124.731 1037.28 124.731C1029.22 124.731 1022.19 126.642 1016.19 130.464C1010.2 134.298 1006.47 139.924 1005.02 147.365H966.255C967.282 136.197 971.068 126.475 977.578 118.21C984.087 109.945 992.519 103.579 1002.86 99.1357C1013.21 94.6926 1024.78 92.4711 1037.61 92.4711C1059.52 92.4711 1076.79 97.9533 1089.41 108.906C1102.02 119.87 1108.33 135.385 1108.33 155.439V250.046H1074.51L1070.79 225.226C1066.24 233.503 1059.88 240.323 1051.71 245.698C1043.54 251.073 1033.04 253.76 1020.23 253.76V253.772ZM1029.22 222.754C1040.59 222.754 1049.43 219.028 1055.75 211.587C1062.06 204.146 1066.03 194.949 1067.69 183.984H1033.88C1023.33 183.984 1015.79 185.895 1011.24 189.718C1006.68 193.551 1004.42 198.245 1004.42 203.835C1004.42 209.831 1006.68 214.489 1011.24 217.797C1015.79 221.106 1021.78 222.766 1029.22 222.766V222.754Z" fill="#645FAD" stroke="#645FAD" stroke-width="3.41593" stroke-miterlimit="10" /><path d="M1127.56 250.046V96.1856H1162.92L1166.65 125.03C1172.23 115.105 1179.83 107.198 1189.45 101.298C1199.06 95.4092 1210.39 92.4591 1223.42 92.4591V134.334H1212.25C1203.57 134.334 1195.82 135.684 1188.98 138.371C1182.16 141.058 1176.84 145.717 1173 152.333C1169.17 158.95 1167.27 168.159 1167.27 179.947V250.058H1127.57L1127.56 250.046Z" fill="#645FAD" stroke="#645FAD" stroke-width="3.41593" stroke-miterlimit="10" /><path d="M1231.79 250.046V26.7085H1271.49V158.544L1326.09 96.1975H1373.24L1310.27 166.308L1383.48 250.058H1333.85L1271.5 172.817V250.058H1231.8L1231.79 250.046Z" fill="#645FAD" stroke="#645FAD" stroke-width="3.41593" stroke-miterlimit="10" /></g><path d="M319.99 159.995C231.631 159.995 159.995 88.3593 159.995 0C175.071 0 189.661 2.08565 203.489 5.98078C213.689 8.85688 221.784 16.7138 224.66 26.9135C233.964 59.9792 260.021 86.0261 293.086 95.3401C303.286 98.2162 311.143 106.311 314.019 116.511C317.914 130.339 320 144.929 320 159.995H319.99Z" fill="url(#paint0_linear_2618_98)" /><path d="M159.995 83.8068C127.101 129.701 67.5599 159.995 0 159.995C0 145.005 2.05707 130.491 5.9141 116.73C8.84735 106.273 17.0757 98.2254 27.542 95.3589C62.941 85.6925 90.5211 57.8361 99.0351 22.8467L159.986 83.7973L159.995 83.8068Z" fill="url(#paint1_linear_2618_98)" /><path d="M159.995 152.377V319.991C146.938 319.991 134.244 318.429 122.092 315.467C108.521 312.163 99.0447 299.877 99.0447 285.906V167.605C99.0447 150.777 112.692 137.13 129.52 137.13H144.758C153.176 137.13 159.995 143.948 159.995 152.367V152.377Z" fill="url(#paint2_linear_2618_98)" /><path d="M99.0447 194.328C99.0447 194.328 99.7304 291.144 99.4732 291.03C94.6067 251.793 65.8742 232.413 28.7325 224.451C17.59 222.06 8.76163 213.565 5.73315 202.575C1.99993 189.014 0 174.738 0 159.986C37.3989 159.986 71.7978 172.814 99.0447 194.318V194.328Z" fill="url(#paint3_linear_2618_98)" /><path d="M319.99 159.995C319.99 175.071 317.905 189.661 314.01 203.489C311.133 213.689 303.277 221.784 293.077 224.66C260.011 233.965 233.955 260.021 224.65 293.087C221.774 303.286 213.679 311.143 203.48 314.019C189.651 317.915 175.061 320 159.995 320C159.995 231.641 231.631 160.005 319.99 160.005V159.995Z" fill="url(#paint4_linear_2618_98)" /><path d="M99.0447 22.8564H129.52C146.339 22.8564 159.995 36.5132 159.995 53.3318V83.807H99.0447V22.8564Z" fill="#645FAD" /><defs><linearGradient id="paint0_linear_2618_98" x1="320" y1="159.995" x2="160.005" y2="-0.00942965" gradientUnits="userSpaceOnUse"><stop stop-color="#7E7ABE" /><stop offset="1" stop-color="#645FAD" /></linearGradient><linearGradient id="paint1_linear_2618_98" x1="-5.5" y1="160" x2="102.504" y2="82.5057" gradientUnits="userSpaceOnUse"><stop stop-color="#D5D3E6" stop-opacity="0.46" /><stop offset="1" stop-color="#8A86BA" stop-opacity="0.63" /></linearGradient><linearGradient id="paint2_linear_2618_98" x1="130" y1="320" x2="57.2806" y2="242.966" gradientUnits="userSpaceOnUse"><stop stop-color="#7E7ABE" /><stop offset="1" stop-color="#645FAD" /></linearGradient><linearGradient id="paint3_linear_2618_98" x1="2.02154e-08" y1="225.508" x2="112.5" y2="226" gradientUnits="userSpaceOnUse"><stop offset="0.0653296" stop-color="#7D78BD" /><stop offset="0.725367" stop-color="#645FAD" /><stop offset="0.93" stop-color="#5B5599" /></linearGradient><linearGradient id="paint4_linear_2618_98" x1="319.99" y1="320" x2="159.985" y2="160.005" gradientUnits="userSpaceOnUse"><stop stop-color="#7E7ABE" /><stop offset="1" stop-color="#645FAD" /></linearGradient><clipPath id="clip0_2618_98"><rect width="987.226" height="295" fill="white" transform="translate(400 25.0005)" /></clipPath></defs></svg>